<svg xmlns="http://www.w3.org/2000/svg" viewBox="0 0 267.672 840.744">
  <g>
    <g>
      <path d="M512.7,714.829a56.162,56.162,0,0,1,0,37.232,45.18,45.18,0,0,1-9.176,15.187A38.947,38.947,0,0,1,489.5,777.439a43.232,43.232,0,0,1-18.033,3.842A45.934,45.934,0,0,1,437.9,767.587a45.1,45.1,0,0,1-9.186-15.2,54.232,54.232,0,0,1-3.334-19.028,53.345,53.345,0,0,1,3.334-18.87c.308-.826.637-1.642.975-2.448,6.28,6.767,10.868,24.343,15.745,34.455l-.08.039c3.563,11.515,1.045,21,8.907,22.692s24.294-3.722,24.294-3.722l2.378,5.424s12.023-5.733,15.924-18c.975-3.105,1.712-5.414,2.269-7.146,7.405-10.758,9.654-24.95,10.271-38.127A51.166,51.166,0,0,1,512.7,714.829Z" transform="translate(-248.698 0.374)" fill="#eebdfd"/>
      <path d="M513.531,637.7v33.729H494.2c2.388-5.723,7.773-11.8,6.857-15.138.378-.229.756-.478,1.125-.726a4.116,4.116,0,0,0,2.169-3.344c0-2.807-3.772-5.892-8.429-7.992-1.1-2.289-2.23-4.558-3.245-6.529h20.85Z" transform="translate(-248.698 0.374)" fill="#eebdfd"/>
      <path d="M450.931,616.491v4.847a14.437,14.437,0,0,0-6.588,7.036c-4.28,10.49-9.972,11-14.72,10.34v-.01l-.238-22.213Z" transform="translate(-248.698 0.374)" fill="#eebdfd"/>
      <path d="M370.079,232.691a52.311,52.311,0,0,1-3.175,18.69,44.989,44.989,0,0,1-9.186,15.2A38.87,38.87,0,0,1,343.7,276.76a43,43,0,0,1-18.023,3.841,45.875,45.875,0,0,1-33.559-13.684,45.184,45.184,0,0,1-9.186-15.2,54.279,54.279,0,0,1-3.334-19.029,53.349,53.349,0,0,1,3.334-18.87,43.586,43.586,0,0,1,9.186-15.2A41.093,41.093,0,0,1,306.8,188.612a43.374,43.374,0,0,1,14.551-3.513,19.1,19.1,0,0,1-1.195,4.021c-1.055,1.343-1.95,3.115-3.025,4.648a.009.009,0,0,1-.01.009,17.392,17.392,0,0,1-4.31,3.344c-15.2,4.18-26.214,14.859-26.214,28.384a25.239,25.239,0,0,0,1.175,7.684,12.509,12.509,0,0,0,1.164,3,29.89,29.89,0,0,0-.5,5.345c0,15.356,10.52,27.209,22.7,27.209a20.7,20.7,0,0,0,12.689-4.508c9.016-7.007,23.039-2,27.05-6.012a32.942,32.942,0,0,0,9.634-14.878C364.635,239.966,368.258,236.1,370.079,232.691Z" transform="translate(-248.698 0.374)" fill="#eebdfd"/>
      <path d="M368.905,345.371c.169,1.841.169,3.175.169,4.349a27.088,27.088,0,0,1-9.176,21.029c-3.673,3.175-7.514,5.175-11.525,5.683a112.388,112.388,0,0,1-13.356.667H324.079a63.593,63.593,0,0,1,1.095-9.176,31.176,31.176,0,0,1,1.2-4.539c15.715-1.672,29.847-5.155,29.847-21.845a34.527,34.527,0,0,0-.676-6.847c-.667-2.508-4.837-4.339-9.007-4.339a12.935,12.935,0,0,0-3.683.5,18.62,18.62,0,0,0-.975-4.339h24.353a59.274,59.274,0,0,1,1.334,6.34c.338,2.169.667,4.339.836,6.518Z" transform="translate(-248.698 0.374)" fill="#eebdfd"/>
      <path d="M369.581,45.2a76.783,76.783,0,0,1-1.343,14.033A40.864,40.864,0,0,1,363.9,71.922,34,34,0,0,1,355.718,82.1,34.73,34.73,0,0,1,343.2,88.95l-3.673-27.219a9.924,9.924,0,0,0,3.334-1.165c7.972-3.583,10.391-10.689,10.132-17.934s1.184-13.207-7.624-17.964c-4.538-2.448-15.5,8.848-22.034,6.489-4.518-1.632-4.1-9.514-9.305-13.913a25.516,25.516,0,0,1,2.627-4.767C321.83,4.3,329.175.126,338.689.126a25.409,25.409,0,0,1,15.028,4.339,31.339,31.339,0,0,1,9.515,10.858,48.022,48.022,0,0,1,4.847,14.52A83.049,83.049,0,0,1,369.581,45.2Z" transform="translate(-248.698 0.374)" fill="#eebdfd"/>
      <path d="M330.429,757.883c1.632-4.707,8.987-5.882,13.326-10.121,5.6-4.549,9.923-8.569,9.923-21.189,0-11.186-3.971-17.088-15.825-23.1l.667-11.017a42.441,42.441,0,0,1,13.864,6.339,39.509,39.509,0,0,1,9.514,10.191,51.649,51.649,0,0,1,5.673,13.187,63.558,63.558,0,0,1,1.841,15.028,67.94,67.94,0,0,1-2.508,18.531,41.024,41.024,0,0,1-19.944,25.409c-.9-18.81-18.093-7.176-16.839-21.816A5.53,5.53,0,0,1,330.429,757.883Z" transform="translate(-248.698 0.374)" fill="#eebdfd"/>
      <path d="M367.74,815.328V839.87H280.588V811.158h17.864v-.339a40.6,40.6,0,0,1-8.35-2.836,21.685,21.685,0,0,1-6.339-4.508,18.1,18.1,0,0,1-3.842-6.509,24.087,24.087,0,0,1-1-8.848l.338-4.508h14.192C291.257,797.583,307.887,811,324.179,811v.279l-15.874.05c0,5.175-3.5,10.35-4.17,16.859,0,2,3.334,3.5,6.837,3.5a8.944,8.944,0,0,0,5.176-1.5c5.851-3.5,12.36-4.508,18.869-4.836a5.6,5.6,0,0,0,1.164.836,12.591,12.591,0,0,0,6.519,1.662c2.5,0,5.006-.667,6.509-2.668C354.882,819.508,362.067,819.169,367.74,815.328Z" transform="translate(-248.698 0.374)" fill="#eebdfd"/>
      <path d="M367.74,284.612V318.33H335.415a30.465,30.465,0,0,0-9.823-4.11c-5.752-1.433-14.361-.328-23.218,4.11H280.757V284.612h8.519c2.329,4.668,1.662,11.186,4,13.356a7.028,7.028,0,0,0,5.006,1.662c5.345,0,11.694-4,17.367-4a7.971,7.971,0,0,1,4.677,1.334c5.006,2.508,9.346,7.683,14.023,7.683a6.474,6.474,0,0,0,3.006-.677,9.581,9.581,0,0,1,4.677-1c2.5,0,5.176.667,7.674.667a9.687,9.687,0,0,0,5.682-1.672,2.055,2.055,0,0,0,.5-1.5c0-1.334-.5-2.836-.5-3.5-9.355-4.847-19.038-7.853-28.214-12.351Z" transform="translate(-248.698 0.374)" fill="#eebdfd"/>
      <path d="M367.74,93.12v22.532a22.1,22.1,0,0,1-3.344.169c-10.509,0-21.865-4.508-32.215-6.339-6.678-1.175-14.362-2.508-21.039-2.508-5.345,0-9.853.836-13.018,3.5-5.175,4.011-7.186,9.853-7.186,16.361a35.823,35.823,0,0,0,.259,4.21,54.849,54.849,0,0,0,3.882,14.033l-2.13.8a19.736,19.736,0,0,1-10.858-9.853,36.485,36.485,0,0,1-3.175-14.858,40.679,40.679,0,0,1,2.01-12.351,20.594,20.594,0,0,1,7.007-10.361,25.457,25.457,0,0,1,12.361-4.667,125.3,125.3,0,0,1,13.684-.667Z" transform="translate(-248.698 0.374)" fill="#eebdfd"/>
      <path d="M354.892,424.362c-.169-12.689-8.848-14.54-16.2-17.685a25.524,25.524,0,0,1-4.777-2.558l.936-11.833c11.355,1.672,19.875,6.18,25.717,13.525s8.678,16.521,8.678,27.707a56.562,56.562,0,0,1-2.508,17.367c-1.662,5.175-4.837,10.022-9.345,14.689a42.055,42.055,0,0,1-15.2,9.684,49.731,49.731,0,0,1-17.865,3.175,48.976,48.976,0,0,1-18.192-3.175,42.316,42.316,0,0,1-14.531-9.176,39.111,39.111,0,0,1-9.345-14.033,46.7,46.7,0,0,1-3.5-18.362,48.844,48.844,0,0,1,2.339-15.028,40.868,40.868,0,0,1,6.678-12.52,37.79,37.79,0,0,1,10.848-9.016,41.262,41.262,0,0,1,14.52-4.509l.8,8.171c-1.831,4.887-5.533,7.355-8.847,9.027a18.508,18.508,0,0,0-3.135,1.5,11.949,11.949,0,0,0-3.673,2.906c-.02.01-.03.03-.04.039a17.376,17.376,0,0,0-5.294,12.749,23.34,23.34,0,0,0,.7,5.5c.01.04.02.09.03.129,3.125,14.192,18.332,28.553,32.634,26.971s26.811-10.49,28.483-32.345C354.872,426.243,354.9,425.278,354.892,424.362Z" transform="translate(-248.698 0.374)" fill="#eebdfd"/>
      <path d="M362.127,582.942a33.7,33.7,0,0,1,1.921,11.972c-.189,5.016-.169,16.909-1.443,21.746H322.268c7.773-2.3,17.277.557,22.462-3.832,6.609-5.583,10.042-17.018,6.868-26.164a14.042,14.042,0,0,0-1.961-3.722Z" transform="translate(-248.698 0.374)" fill="#eebdfd"/>
      <path d="M305.13,644.377h57.525c-1.045,2.508-2.319,5.2-3.444,7.892-5.165-2.458-14.242-3.881-19.516-3.881a8.781,8.781,0,0,0-4.34.826c-9.016,3.513-20.87,8.051-28.055,7.186-3.2-.389-7.962-5.832-11.863-5.156-11.027,1.921-18.183,6.987-26.2-3.025-3.831-4.339-5.672-10.52-5.672-16.7a37.367,37.367,0,0,1,2.169-12.022h5.026c-.209,4.339-.259,13.117.657,17.366.647,3.006,3.006,8.012,9.345,8.012a17.959,17.959,0,0,0,2.837-.159c11.037.049,17.536-1.692,21.536-4.33Z" transform="translate(-248.698 0.374)" fill="#eebdfd"/>
      <path d="M356.454,678.106H305.13v12.181H283.594V678.106h-1.165a72.79,72.79,0,0,1-12.361-1.006,22.8,22.8,0,0,1-11.345-5.344,22.318,22.318,0,0,1-7.853-12.351,63.677,63.677,0,0,1-1.672-14.859,103.494,103.494,0,0,1,.677-12.52l1.493-12.529h11.614l.657,38.117c3.613,5.822,8.977,9.634,16.949,9.634a33.488,33.488,0,0,0,7.683-1c4.339-1.174,16.531,3.036,21.039,3.036,11.853,0,7.554-12.878,18.571-12.878,6.051,0,20.313,9.156,28.344,9.534A116.178,116.178,0,0,0,356.454,678.106Z" transform="translate(-248.698 0.374)" fill="#eebdfd"/>
      <path d="M353.27,567.008a39.312,39.312,0,0,1-10.072,6.081,45.5,45.5,0,0,1-5.464,1.861,64.744,64.744,0,0,0-18.661-3.284c-4.518-.2-7.623.706-9.852,2.319-.528-.179-1.055-.359-1.583-.558a45.413,45.413,0,0,1-15.2-9.514,39.984,39.984,0,0,1-10.181-15.864,56.7,56.7,0,0,1-3.344-18.7,50.972,50.972,0,0,1,3.513-19.537,41.473,41.473,0,0,1,9.515-14.689,40.764,40.764,0,0,1,14.858-9.176,55.5,55.5,0,0,1,19.537-3.344h4.508v5.006c-7.8.657-12.112,3.085-17.785,6.937-3.374,2.289-15.107,13.6-16.948,17.277a33.015,33.015,0,0,0-1.842,3.224l-.029.06a33.583,33.583,0,0,0-3.374,15.5c0,7.006,4.13,17.536,8.429,21.327,3.464,3.066,10.361,4.489,17.835,4.927,7.743.448,22.512-2.777,28.573,2.279A52.739,52.739,0,0,1,353.27,567.008Z" transform="translate(-248.698 0.374)" fill="#eebdfd"/>
      <path d="M334.609,62.288a38.757,38.757,0,0,1-3.762,9.464A23.786,23.786,0,0,1,322.5,81.1c-3.5,2.508-8.012,3.672-13.854,3.672a23.4,23.4,0,0,1-13.2-3.672,31.53,31.53,0,0,1-9.684-9.684,42.078,42.078,0,0,1-5.175-13.525,70.716,70.716,0,0,1-1.5-14.52,61.218,61.218,0,0,1,1.334-12.192,48.185,48.185,0,0,1,3.841-11.346,36.374,36.374,0,0,1,7.017-9.524A33.031,33.031,0,0,1,301.8,4.137l1.832,9.514.069.358a14.588,14.588,0,0,0-7.076,2.15A24.589,24.589,0,0,0,289.605,23a38.318,38.318,0,0,0-6.181,21.039,29.644,29.644,0,0,0,3.842,15.028c4.011,7.007,11.017,8.012,15.028,16.024a9.876,9.876,0,0,0,8.678,4.677c4.678,0,11.187-12.261,12.361-17.267C323.333,62.5,329.155,62.666,334.609,62.288Z" transform="translate(-248.698 0.374)" fill="#eebdfd"/>
      <path d="M330.847,692.457v24.98c-10.619-6.469-16.282-7.215-22.373-6.389-7.7,1.025-16.232,3.911-18.2,28.334-.478,5.931.179,9.653,1.264,12.271a.931.931,0,0,1,.039.109,11.069,11.069,0,0,0,2.807,4.409l.01.01c1.682,2.04,3.194,3.683,3.085,7.206a42.734,42.734,0,0,1-2.04,12.987c-1.045-.826-2.04-1.691-3-2.607A39.984,39.984,0,0,1,282.26,757.9a56.7,56.7,0,0,1-3.344-18.7,50.972,50.972,0,0,1,3.513-19.537,41.376,41.376,0,0,1,9.515-14.689,40.784,40.784,0,0,1,14.858-9.186,55.732,55.732,0,0,1,19.537-3.334Z" transform="translate(-248.698 0.374)" fill="#eebdfd"/>
      <path d="M321.591,178.093h-41V146.206h12.361v-.329l2.13-.8a74.2,74.2,0,0,0,8.051,14.481,9.671,9.671,0,0,0,7.683,3.343,17.411,17.411,0,0,0,5.693-1.064A45.289,45.289,0,0,1,321.591,178.093Z" transform="translate(-248.698 0.374)" fill="#eebdfd"/>
      <path d="M250.87,582.942h52.887c-1.254,3.921-2.16,8.22-4.25,11.724-4.01,6.7-10.489,1.273-22.691,9.186-3.871,2.508-5.3,8.7-5.812,12.808H250.87Z" transform="translate(-248.698 0.374)" fill="#eebdfd"/>
      <path d="M302.125,378.363v11.425H280.09V375.6l-3-.269.229-2.6c.2.019.408.029.607.029a27.1,27.1,0,0,0,7.345-1.174l.169.169a4.507,4.507,0,0,1,.5,2c0,1.333-.5,2.677-.5,4.01,1,2,3,4.011,4,4.011h.836a2.662,2.662,0,0,0,2.01-.677c.667,0,1.334.17,1.831.17a1.912,1.912,0,0,0,1.334-.5,13.028,13.028,0,0,0,2.577-4.339C299.458,377.089,300.841,377.716,302.125,378.363Z" transform="translate(-248.698 0.374)" fill="#eebdfd"/>
      <path d="M280.09,326.511h10.5a37.054,37.054,0,0,0-10.46,17.367l-.04-.01Z" transform="translate(-248.698 0.374)" fill="#eebdfd"/>
      <path d="M280.09,343.868l.04.01a32.264,32.264,0,0,0-1.015,7.723,4.52,4.52,0,0,0-2.976-.657c-1.5,0-2.906,3.354-4.08,4.359-2.339-.169-10.331-4.25-12.669-4.588-1.672,0-3.344,3.344-3.344,6.18a5.9,5.9,0,0,0,.338,1.832c1,1.343,7.056,1.761,8.39,2.926-.478,5.185,6.051,10.6,12.54,11.077l-.229,2.6L252.2,373.088l-1-29.22Z" transform="translate(-248.698 0.374)" fill="#eebdfd"/>
      <rect x="0.5" y="284.986" width="23.209" height="33.718" fill="#eebdfd"/>
    </g>
    <g>
      <rect x="0.5" y="284.986" width="23.209" height="33.718" fill="none" stroke="#eebdfd" stroke-miterlimit="10"/>
      <path d="M302.374,318.33H280.757V284.612h8.519c2.329,4.668,1.662,11.186,4,13.356a7.028,7.028,0,0,0,5.006,1.662c5.345,0,11.694-4,17.367-4a7.971,7.971,0,0,1,4.677,1.334c5.006,2.508,9.346,7.683,14.023,7.683a6.474,6.474,0,0,0,3.006-.677,9.581,9.581,0,0,1,4.677-1c2.5,0,5.176.667,7.674.667a9.687,9.687,0,0,0,5.682-1.672,2.055,2.055,0,0,0,.5-1.5c0-1.334-.5-2.836-.5-3.5-9.355-4.847-19.038-7.853-28.214-12.351H367.74V318.33H302.374Z" transform="translate(-248.698 0.374)" fill="none" stroke="#eebdfd" stroke-miterlimit="10"/>
      <polygon points="22.305 617.034 2.172 617.034 2.172 583.316 55.058 583.316 100.938 583.316 113.429 583.316 119.042 583.316 119.042 617.034 113.906 617.034 73.57 617.034 22.305 617.034" fill="none" stroke="#eebdfd" stroke-miterlimit="10"/>
      <path d="M294.392,756.181c1.682,2.04,3.194,3.683,3.085,7.206a42.734,42.734,0,0,1-2.04,12.987,42.3,42.3,0,0,0-1.991,7.236C291.257,797.583,307.887,811,324.179,811c.2,0,.408-.01.607-.01,9.9-.189,22.214-7.235,22.214-28.264,0-.547-.01-1.075-.04-1.582-.9-18.81-18.093-7.176-16.839-21.816a5.53,5.53,0,0,1,.308-1.443c1.632-4.707,8.987-5.882,13.326-10.121a10.643,10.643,0,0,0,3.245-8.38c-.16-5.842-2.588-13.127-12.809-19.825q-1.746-1.151-3.344-2.12c-10.619-6.469-16.282-7.215-22.373-6.389-7.7,1.025-16.232,3.911-18.2,28.334-.478,5.931.179,9.653,1.264,12.271" transform="translate(-248.698 0.374)" fill="none" stroke="#eebdfd" stroke-miterlimit="10"/>
      <path d="M291.575,751.762a17.512,17.512,0,0,0,2.807,4.409" transform="translate(-248.698 0.374)" fill="none" stroke="#eebdfd" stroke-miterlimit="10"/>
      <path d="M343.666,747.831c.029-.02.059-.049.089-.069,5.6-4.549,9.923-8.569,9.923-21.189,0-11.186-3.971-17.088-15.825-23.1l.667-11.017a42.441,42.441,0,0,1,13.864,6.339,39.509,39.509,0,0,1,9.514,10.191,51.649,51.649,0,0,1,5.673,13.187,63.558,63.558,0,0,1,1.841,15.028,67.94,67.94,0,0,1-2.508,18.531,41.024,41.024,0,0,1-19.944,25.409,36.5,36.5,0,0,1-3.762,1.8,43.515,43.515,0,0,1-17.865,3.344,46.327,46.327,0,0,1-29.9-9.913c-1.045-.826-2.04-1.691-3-2.607A39.984,39.984,0,0,1,282.26,757.9a56.7,56.7,0,0,1-3.344-18.7,50.972,50.972,0,0,1,3.513-19.537,41.376,41.376,0,0,1,9.515-14.689,40.784,40.784,0,0,1,14.858-9.186,55.732,55.732,0,0,1,19.537-3.334h4.508v58.43c2.17,0,7.176.716,12.819-3.056" transform="translate(-248.698 0.374)" fill="none" stroke="#eebdfd" stroke-miterlimit="10"/>
      <path d="M330.678,757.9a1.047,1.047,0,0,1-.249-.02,6.837,6.837,0,0,1-4.26-2.15c-4.508-4.508-5.175-10.35-5.175-16.361,0-2.508.169-5.175.169-7.683,0-4.837-.507-9.346-3-13.018-1.841-2.339-5.175-3.344-8.519-3.344-5.673,0-11.684,2.677-13.525,6.35a39.811,39.811,0,0,0-5.842,20.7,28.1,28.1,0,0,0,1.264,9.276.931.931,0,0,1,.039.109,11.069,11.069,0,0,0,2.807,4.409l.01.01c4.429,4.12,14.61,7.524,26.284,7.524l.318-24.333" transform="translate(-248.698 0.374)" fill="none" stroke="#eebdfd" stroke-miterlimit="10"/>
      <path d="M308.305,811.327c0,5.175-3.5,10.35-4.17,16.859,0,2,3.334,3.5,6.837,3.5a8.944,8.944,0,0,0,5.176-1.5c5.851-3.5,12.36-4.508,18.869-4.836a5.6,5.6,0,0,0,1.164.836,12.591,12.591,0,0,0,6.519,1.662c2.5,0,5.006-.667,6.509-2.668,5.673-5.672,12.858-6.011,18.531-9.852V839.87H280.588V811.158h17.864v-.339a40.6,40.6,0,0,1-8.35-2.836,21.685,21.685,0,0,1-6.339-4.508,18.1,18.1,0,0,1-3.842-6.509,24.087,24.087,0,0,1-1-8.848l.338-4.508h14.192" transform="translate(-248.698 0.374)" fill="none" stroke="#eebdfd" stroke-miterlimit="10"/>
      <polyline points="59.607 811.701 75.481 811.651 119.042 811.532 119.042 815.702" fill="none" stroke="#eebdfd" stroke-miterlimit="10"/>
      <line x1="17.031" y1="619.871" x2="22.057" y2="619.871" fill="none" stroke="#eebdfd" stroke-miterlimit="10"/>
      <path d="M283.594,644.716c11.037.049,17.536-1.692,21.536-4.33,8.46-5.593,5.753-15.217,11.276-20.442a14.084,14.084,0,0,1,5.862-3.284c7.773-2.3,17.277.557,22.462-3.832,6.609-5.583,10.042-17.018,6.868-26.164a14.042,14.042,0,0,0-1.961-3.722c-2.5-3.434-6.608-6.111-11.9-7.992a64.744,64.744,0,0,0-18.661-3.284c-4.518-.2-7.623.706-9.852,2.319-2.9,2.09-4.32,5.374-5.464,8.957-1.254,3.921-2.16,8.22-4.25,11.724-4.01,6.7-10.489,1.273-22.691,9.186-3.871,2.508-5.3,8.7-5.812,12.808-.139,1.155-.209,2.14-.249,2.837-.209,4.339-.259,13.117.657,17.366.647,3.006,3.006,8.012,9.345,8.012a17.959,17.959,0,0,0,2.837-.159V623.169H305.13v21.208h62.61v33.729H305.13v12.181H283.594V678.106h-1.165a72.79,72.79,0,0,1-12.361-1.006,22.8,22.8,0,0,1-11.345-5.344,22.318,22.318,0,0,1-7.853-12.351,63.677,63.677,0,0,1-1.672-14.859,103.494,103.494,0,0,1,.677-12.52l1.493-12.529h11.614" transform="translate(-248.698 0.374)" fill="none" stroke="#eebdfd" stroke-miterlimit="10"/>
      <path d="M294.243,515.107a33.583,33.583,0,0,0-3.374,15.5c0,7.006,4.13,17.536,8.429,21.327,3.464,3.066,10.361,4.489,17.835,4.927,7.743.448,22.512-2.777,28.573,2.279a52.739,52.739,0,0,1,7.564,7.872,54.964,54.964,0,0,1,8.857,15.934,33.7,33.7,0,0,1,1.921,11.972c-.189,5.016-.169,16.909-1.443,21.746s-3.822,2.647-4.738,8.878c-.626,4.229,7.425,7.324,6.858,12.161a26.739,26.739,0,0,1-2.07,6.678c-1.045,2.508-2.319,5.2-3.444,7.892-1.453,3.464-2.667,6.917-2.826,9.973-.07,1.273-.12,2.508-.16,3.7a116.178,116.178,0,0,0,.229,12.162c.826,10.838,3.384,18.033,7.007,23.278" transform="translate(-248.698 0.374)" fill="none" stroke="#eebdfd" stroke-miterlimit="10"/>
      <path d="M408.773,704.28c5.962-.517,12.441.9,19.557,6.489a11.539,11.539,0,0,1,1.363,1.274c6.28,6.767,10.868,24.343,15.745,34.455a23.914,23.914,0,0,0,3.543,5.672c12.092,13.088,24,11.535,34.524,6.728a37.642,37.642,0,0,0,15.625-13.117c7.405-10.758,9.654-24.95,10.271-38.127.328-6.827.209-13.386.159-19.059,0,0-14.132-4.12-16.172-10.589-.627-2-.149-4.26.816-6.578,2.388-5.723,7.773-11.8,6.857-15.138a99.251,99.251,0,0,0-5.135-12.062c-1.1-2.289-2.23-4.558-3.245-6.529-.746-1.493-1.443-2.806-1.99-3.841-3.772-7.047-7.853-10.072-20.313-14.361a25.708,25.708,0,0,0-19.447,1.841,14.437,14.437,0,0,0-6.588,7.036c-4.28,10.49-9.972,11-14.72,10.34-1.084-.149-2.119-.348-3.075-.517-3.035-.518-7.991-.5-9.345-8.012-.388-2.139-2.319-13.525-1.652-17.366,1.791-36.366,19.8-18.761,25.488-36.366,5.593-17.277,2.01-39.978-2.289-54.21-1.991-6.6-7.2-18.92-13.366-23.378-5.5-3.961-23.8,7.116-23.8,7.116S384.3,493.57,365.491,490.6c-5.076-.8-9.544-1.443-13.5-1.93-5.454-.687-9.953-1.075-13.764-1.2a62.329,62.329,0,0,0-7.375.14c-7.8.657-12.112,3.085-17.785,6.937-3.374,2.289-15.107,13.6-16.948,17.277a33.015,33.015,0,0,0-1.842,3.224" transform="translate(-248.698 0.374)" fill="none" stroke="#eebdfd" stroke-miterlimit="10"/>
      <path d="M415.551,612.819H397.169l-1.5,12.529a103.483,103.483,0,0,0-.667,12.52,63.616,63.616,0,0,0,1.663,14.859,22.311,22.311,0,0,0,7.852,12.351,22.789,22.789,0,0,0,11.355,5.344,72.67,72.67,0,0,0,12.351,1.006h1.165v12.181h21.546V671.428h62.6V637.7h-62.6V616.491H429.385l.238,22.213" transform="translate(-248.698 0.374)" fill="none" stroke="#eebdfd" stroke-miterlimit="10"/>
      <path d="M499.946,743.193c4.26-10.768-1.353-22.561-9.315-30.583-11.783-11.853-31.788-8.29-40.088.727s-10.917,26.2-1.562,38.833" transform="translate(-248.698 0.374)" fill="none" stroke="#eebdfd" stroke-miterlimit="10"/>
      <path d="M492.721,752.927a25.074,25.074,0,0,0,7.215-9.7" transform="translate(-248.698 0.374)" fill="none" stroke="#eebdfd" stroke-miterlimit="10"/>
      <path d="M509.4,707.654a51.166,51.166,0,0,1,3.294,7.175,56.162,56.162,0,0,1,0,37.232,45.18,45.18,0,0,1-9.176,15.187A38.947,38.947,0,0,1,489.5,777.439a43.232,43.232,0,0,1-18.033,3.842A45.934,45.934,0,0,1,437.9,767.587a45.1,45.1,0,0,1-9.186-15.2,54.232,54.232,0,0,1-3.334-19.028,53.345,53.345,0,0,1,3.334-18.87c.308-.826.637-1.642.975-2.448A41.833,41.833,0,0,1,437.9,699.3a41.2,41.2,0,0,1,14.689-10.022,45.974,45.974,0,0,1,18.87-3.672,43.137,43.137,0,0,1,18.033,3.672,41.168,41.168,0,0,1,14.023,10.181A42.346,42.346,0,0,1,509.4,707.654Z" transform="translate(-248.698 0.374)" fill="none" stroke="#eebdfd" stroke-miterlimit="10"/>
      <path d="M330.847,487.609v53.424c8.639-.488,22.024-3.961,23.04-20.194.487-7.882-4.18-21.208-16.034-27.219l.369-6.151.3-4.866a42.549,42.549,0,0,1,13.466,6.071,4.788,4.788,0,0,1,.4.268,39.5,39.5,0,0,1,9.514,10.192,51.627,51.627,0,0,1,5.673,13.186,63.623,63.623,0,0,1,1.841,15.028,67.94,67.94,0,0,1-2.508,18.531,42.053,42.053,0,0,1-8.847,16.531,43.5,43.5,0,0,1-4.787,4.6,39.312,39.312,0,0,1-10.072,6.081,45.5,45.5,0,0,1-5.464,1.861,42.836,42.836,0,0,1-12.4,1.483,46.219,46.219,0,0,1-16.112-2.448c-.528-.179-1.055-.359-1.583-.558a45.413,45.413,0,0,1-15.2-9.514,39.984,39.984,0,0,1-10.181-15.864,56.7,56.7,0,0,1-3.344-18.7,50.972,50.972,0,0,1,3.513-19.537,41.473,41.473,0,0,1,9.515-14.689,40.764,40.764,0,0,1,14.858-9.176,55.5,55.5,0,0,1,19.537-3.344h4.508Z" transform="translate(-248.698 0.374)" fill="none" stroke="#eebdfd" stroke-miterlimit="10"/>
      <path d="M317.133,556.857c0-2.5-.2-24.861-.548-35.022-.109-3.334.289-11.734-2.219-15.406-1.831-2.339-2.558-3.076-5.892-3.076-5.663,0-9.813,4.529-14.2,11.694l-.029.06" transform="translate(-248.698 0.374)" fill="none" stroke="#eebdfd" stroke-miterlimit="10"/>
      <path d="M293.675,432.642c2,7.932,7.813,15.755,14.292,20.751a7.328,7.328,0,0,0,4.677,1.662c4.011,0,8.181-3.165,10.351-6.678a8.06,8.06,0,0,0,2.508-5.006c1.5,0,3.334,0,5.175-.169a23.683,23.683,0,0,0,7.006-1.165,15.526,15.526,0,0,0,5.514-3.5,7.506,7.506,0,0,0,1.333-1.841c3.344-1.5,6.35-3.334,8.52-6.34a10.436,10.436,0,0,0,1.841-5.991v-.408" transform="translate(-248.698 0.374)" fill="none" stroke="#eebdfd" stroke-miterlimit="10"/>
      <path d="M298.243,414.26a17.376,17.376,0,0,0-5.294,12.749,23.34,23.34,0,0,0,.7,5.5" transform="translate(-248.698 0.374)" fill="none" stroke="#eebdfd" stroke-miterlimit="10"/>
      <path d="M338.709,406.677h-.02c-.855,0-4.18.3-5.006.3l.229-2.856.936-11.833c11.355,1.672,19.875,6.18,25.717,13.525s8.678,16.521,8.678,27.707a56.562,56.562,0,0,1-2.508,17.367c-1.662,5.175-4.837,10.022-9.345,14.689a42.055,42.055,0,0,1-15.2,9.684,49.731,49.731,0,0,1-17.865,3.175,48.976,48.976,0,0,1-18.192-3.175,42.316,42.316,0,0,1-14.531-9.176,39.111,39.111,0,0,1-9.345-14.033,46.7,46.7,0,0,1-3.5-18.362,48.844,48.844,0,0,1,2.339-15.028,40.868,40.868,0,0,1,6.678-12.52,37.79,37.79,0,0,1,10.848-9.016,41.262,41.262,0,0,1,14.52-4.509l.8,8.171.547,5.693c-3.035,1.453-6.419,2.2-9.394,3.334a18.508,18.508,0,0,0-3.135,1.5,23.111,23.111,0,0,0-3.673,2.906" transform="translate(-248.698 0.374)" fill="none" stroke="#eebdfd" stroke-miterlimit="10"/>
      <path d="M334.748,350.317a13.323,13.323,0,0,1-2.707,3.244c-8.25,6.967-21.019-3.174-21.019-3.174-2,0-7.225,2.667-9.564.328-1.164-1.164-1.334-3-1.334-5.006,0-.8.03-1.632.03-2.448,0-2.618-.288-5.165-2.7-6.569a6.631,6.631,0,0,0-3.682-1.333,8.573,8.573,0,0,0-5.175,2c-.826,0-1.662-.169-2.17.339a9.717,9.717,0,0,0-1.334,4.836,7.54,7.54,0,0,0,.667,3.344c-1.333,2.17-2.836,4.17-4.339,6.34a6.921,6.921,0,0,1-2.309-.617,4.52,4.52,0,0,0-2.976-.657c-1.5,0-2.906,3.354-4.08,4.359-2.339-.169-10.331-4.25-12.669-4.588-1.672,0-3.344,3.344-3.344,6.18a5.9,5.9,0,0,0,.338,1.832c1,1.343,7.056,1.761,8.39,2.926-.478,5.185,6.051,10.6,12.54,11.077.2.019.408.029.607.029a27.1,27.1,0,0,0,7.345-1.174l.169.169a4.507,4.507,0,0,1,.5,2c0,1.333-.5,2.677-.5,4.01,1,2,3,4.011,4,4.011h.836a2.662,2.662,0,0,0,2.01-.677c.667,0,1.334.17,1.831.17a1.912,1.912,0,0,0,1.334-.5,13.028,13.028,0,0,0,2.577-4.339c1.812-4.489,2.807-9.962,6.44-10.689,6.777-1.174,14.52-1.562,21.914-2.359,15.715-1.672,29.847-5.155,29.847-21.845a34.527,34.527,0,0,0-.676-6.847c-.667-2.508-4.837-4.339-9.007-4.339a12.935,12.935,0,0,0-3.683.5l-1-4.339h24.373a59.274,59.274,0,0,1,1.334,6.34c.338,2.169.667,4.339.836,6.518l.5,6c.169,1.841.169,3.175.169,4.349a27.088,27.088,0,0,1-9.176,21.029c-3.673,3.175-7.514,5.175-11.525,5.683a112.388,112.388,0,0,1-13.356.667H302.125v12.689H280.09V375.6l-3-.269L252.2,373.088l-1-29.22H280.09V326.511h22.035V343.54h33.629s4.966,1.044,6.757-5.952" transform="translate(-248.698 0.374)" fill="none" stroke="#eebdfd" stroke-miterlimit="10"/>
      <path d="M301.956,411.315c.945-.448,2.02-.926,3.135-1.5,3.314-1.672,7.016-4.14,8.847-9.027a18.348,18.348,0,0,0,1.025-4.419c.637-5.832-1.562-9.245-8.34-15.147a22.239,22.239,0,0,0-4.5-2.856c-1.284-.647-2.667-1.274-4.1-1.931-7.514-3.434-16.341-7.524-18.342-18.283a33.092,33.092,0,0,1-.567-6.548,32.264,32.264,0,0,1,1.015-7.723,37.054,37.054,0,0,1,10.46-17.367,42.09,42.09,0,0,1,5.524-4.5,51.84,51.84,0,0,1,6.26-3.683c8.857-4.438,17.466-5.543,23.218-4.11a30.465,30.465,0,0,1,9.823,4.11,16.5,16.5,0,0,1,6.469,8.181,18.62,18.62,0,0,1,.975,4.339,21.641,21.641,0,0,1-.338,6.708c0,.01-.01.02-.01.03a16.71,16.71,0,0,1-1.761,4.757,49.719,49.719,0,0,1-6,7.972c-.915,1.055-1.831,2.13-2.707,3.244a32.877,32.877,0,0,0-5.663,9.823,31.176,31.176,0,0,0-1.2,4.539,63.593,63.593,0,0,0-1.095,9.176c-.318,8.33,1.573,15.426,6.34,23.348a12.1,12.1,0,0,0,3.493,3.672,25.524,25.524,0,0,0,4.777,2.558c7.355,3.145,16.034,5,16.2,17.685.01.916-.02,1.881-.1,2.906-1.672,21.855-14.172,30.753-28.483,32.345s-29.509-12.779-32.634-26.971c-.01-.039-.02-.089-.03-.129a21.555,21.555,0,0,1,4.6-18.253c.01-.009.02-.029.04-.039A11.949,11.949,0,0,1,301.956,411.315Z" transform="translate(-248.698 0.374)" fill="none" stroke="#eebdfd" stroke-miterlimit="10"/>
      <path d="M359.211,652.269c2.359,1.125,3.9,2.459,3.9,3.971,0,1.175-1.632,7.893-3.135,8.9a6.023,6.023,0,0,1-3.752.806c-8.031-.378-22.293-9.534-28.344-9.534-11.017,0-6.718,12.878-18.571,12.878-4.508,0-16.7-4.21-21.039-3.036a33.488,33.488,0,0,1-7.683,1c-7.972,0-13.336-3.812-16.949-9.634l-.657-38.117h2.747a37.367,37.367,0,0,0-2.169,12.022c0,6.18,1.841,12.361,5.672,16.7,8.022,10.012,15.178,4.946,26.2,3.025,3.9-.676,8.658,4.767,11.863,5.156,7.185.865,19.039-3.673,28.055-7.186a8.781,8.781,0,0,1,4.34-.826C344.969,648.388,354.046,649.811,359.211,652.269Z" transform="translate(-248.698 0.374)" fill="none" stroke="#eebdfd" stroke-miterlimit="10"/>
      <path d="M495.926,644.228c4.657,2.1,8.429,5.185,8.429,7.992a4.116,4.116,0,0,1-2.169,3.344c-.369.248-.747.5-1.125.726-5.862,3.6-12.172,4.777-18.909,4.777-11.027,0-25.448-8.081-37.3-8.081-4.508,0-6.449,5.414-10.788,6.588a33.476,33.476,0,0,1-7.673,1c-13.077,0-19.158-10.251-21.975-22.871h7.972a19.835,19.835,0,0,0,2.647,3.842c8.012,10.012,24.045,6.011,35.062,8.011a17.782,17.782,0,0,0,3.006.17c8.509,0,19.029-3.673,28.045-7.186a8.781,8.781,0,0,1,4.34-.826A26.837,26.837,0,0,1,495.926,644.228Z" transform="translate(-248.698 0.374)" fill="none" stroke="#eebdfd" stroke-miterlimit="10"/>
      <path d="M370.079,232.691a52.311,52.311,0,0,1-3.175,18.69,44.989,44.989,0,0,1-9.186,15.2A38.87,38.87,0,0,1,343.7,276.76a43,43,0,0,1-18.023,3.841,45.875,45.875,0,0,1-33.559-13.684,45.184,45.184,0,0,1-9.186-15.2,54.279,54.279,0,0,1-3.334-19.029,53.349,53.349,0,0,1,3.334-18.87,43.586,43.586,0,0,1,9.186-15.2A41.093,41.093,0,0,1,306.8,188.612a43.374,43.374,0,0,1,14.551-3.513c1.4-.109,2.846-.159,4.319-.159a42.9,42.9,0,0,1,18.023,3.672,40.845,40.845,0,0,1,14.023,10.181A45.765,45.765,0,0,1,366.9,214.16,52.709,52.709,0,0,1,370.079,232.691Z" transform="translate(-248.698 0.374)" fill="none" stroke="#eebdfd" stroke-miterlimit="10"/>
      <path d="M317.123,193.777a7.131,7.131,0,0,1-4.31,3.344c-15.2,4.18-26.214,14.859-26.214,28.384a25.239,25.239,0,0,0,1.175,7.684,12.509,12.509,0,0,0,1.164,3,29.89,29.89,0,0,0-.5,5.345c0,15.356,10.52,27.209,22.7,27.209a20.7,20.7,0,0,0,12.689-4.508c9.016-7.007,23.039-2,27.05-6.012a32.942,32.942,0,0,0,9.634-14.878,39.572,39.572,0,0,0,2.05-12.5,34.624,34.624,0,0,0-4.678-17.695c-3-4.011-9.016-3.006-12.022-6.012-5.334-7.175-9.843-20.7-19.367-20.7a10.219,10.219,0,0,0-3.673.666,5.036,5.036,0,0,0-2.667,2.011c-1.055,1.343-1.95,3.115-3.025,4.648" transform="translate(-248.698 0.374)" fill="none" stroke="#eebdfd" stroke-miterlimit="10"/>
      <path d="M291.207,131.048c1.841,9.664,4.22,13.287,7.215,15.3,2.807,1.9,6.131,2.388,10.062,5.086,2.439,1.681,5.474,5.543,8.022,10.41a45.289,45.289,0,0,1,5.085,16.252,26.044,26.044,0,0,1-.238,7.006,19.1,19.1,0,0,1-1.195,4.021,16.234,16.234,0,0,1-3.025,4.648.009.009,0,0,1-.01.009,17.392,17.392,0,0,1-4.31,3.344c-12.022,3.3-18.043,18.114-18.043,28.822,0,1.981-.518,10.56-.518,11.883,0,12.152,10.3,22.343,19.945,22.343a16.355,16.355,0,0,0,10.042-3.573c7.136-5.543,16.073-3.493,21.407-4.757,4.14-.975,9.873-4.369,14.869-8.489,4.12-3.384,7.743-7.255,9.564-10.659,7.753-14.55,2.1-30.882,2.1-36.545,0,0,30.325-26.592,22.532-48.786s-10.062-38.336-26.971-31.708" transform="translate(-248.698 0.374)" fill="none" stroke="#eebdfd" stroke-miterlimit="10"/>
      <path d="M321.591,178.093h-41V146.206h12.361v-.329a19.736,19.736,0,0,1-10.858-9.853,36.485,36.485,0,0,1-3.175-14.858,40.679,40.679,0,0,1,2.01-12.351,20.594,20.594,0,0,1,7.007-10.361,25.457,25.457,0,0,1,12.361-4.667,125.3,125.3,0,0,1,13.684-.667H367.74v22.532a22.1,22.1,0,0,1-3.344.169c-10.509,0-21.865-4.508-32.215-6.339-6.678-1.175-14.362-2.508-21.039-2.508-5.345,0-9.853.836-13.018,3.5-5.175,4.011-7.186,9.853-7.186,16.361a35.823,35.823,0,0,0,.259,4.21,54.849,54.849,0,0,0,3.882,14.033,74.2,74.2,0,0,0,8.051,14.481,9.671,9.671,0,0,0,7.683,3.343,17.411,17.411,0,0,0,5.693-1.064,37.732,37.732,0,0,0,14.669-10.291,8.814,8.814,0,0,1,5.006-1.5,9.223,9.223,0,0,1,5.016,1.5c3.006,2,5.006,10.022,8.012,10.022,4.837-.836,12.022-.667,18.531-1.344v17.865Z" transform="translate(-248.698 0.374)" fill="none" stroke="#eebdfd" stroke-miterlimit="10"/>
      <path d="M345.367,24.668a17.874,17.874,0,0,1-1.5,5.673h-.329a3.049,3.049,0,0,0-2.677,1.841,16.883,16.883,0,0,0-1.672,4.339c-.328,1.672-.667,3.344-.826,4.847-.169,1.662-.338,2.837-.508,3.673-.666,4.508-1.5,9.016-2.5,13.853-.209,1.155-.447,2.289-.746,3.394a38.757,38.757,0,0,1-3.762,9.464A23.786,23.786,0,0,1,322.5,81.1c-3.5,2.508-8.012,3.672-13.854,3.672a23.4,23.4,0,0,1-13.2-3.672,31.53,31.53,0,0,1-9.684-9.684,42.078,42.078,0,0,1-5.175-13.525,70.716,70.716,0,0,1-1.5-14.52,61.218,61.218,0,0,1,1.334-12.192,48.185,48.185,0,0,1,3.841-11.346,36.374,36.374,0,0,1,7.017-9.524A33.031,33.031,0,0,1,301.8,4.137l1.832,9.514" transform="translate(-248.698 0.374)" fill="none" stroke="#eebdfd" stroke-miterlimit="10"/>
      <path d="M339.525,61.731a48.368,48.368,0,0,1-4.916.557c-5.454.378-11.276.209-11.276.209-1.174,5.006-7.683,17.267-12.361,17.267a9.876,9.876,0,0,1-8.678-4.677c-4.011-8.012-11.017-9.017-15.028-16.024a29.644,29.644,0,0,1-3.842-15.028A38.318,38.318,0,0,1,289.605,23a24.589,24.589,0,0,1,7.016-6.837,14.588,14.588,0,0,1,7.076-2.15,16.163,16.163,0,0,1,7.942,1.682,10.875,10.875,0,0,1,2.389,1.553c5.2,4.4,4.787,12.281,9.305,13.913,6.529,2.359,17.5-8.937,22.034-6.489,8.808,4.757,7.375,10.719,7.624,17.964s-2.16,14.351-10.132,17.934" transform="translate(-248.698 0.374)" fill="none" stroke="#eebdfd" stroke-miterlimit="10"/>
      <path d="M305.8,24.668l1,5.175a10.772,10.772,0,0,0-6.18,6.181,28.556,28.556,0,0,0-1.5,9.017,18.14,18.14,0,0,0,1.334,7.673c.836,2.169,2.01,3.175,3.175,3.175a3.366,3.366,0,0,0,3-1.5,14,14,0,0,0,1.5-3.673,35.419,35.419,0,0,0,1.174-7.175c.329-2.837.667-5.345.826-7.514.508-3.842,1.175-8.012,2.011-12.192a28,28,0,0,1,1.881-6.588,25.516,25.516,0,0,1,2.627-4.767C321.83,4.3,329.175.126,338.689.126a25.409,25.409,0,0,1,15.028,4.339,31.339,31.339,0,0,1,9.515,10.858,48.022,48.022,0,0,1,4.847,14.52,83.049,83.049,0,0,1,1.5,15.357,76.783,76.783,0,0,1-1.343,14.033A40.864,40.864,0,0,1,363.9,71.922,34,34,0,0,1,355.718,82.1,34.73,34.73,0,0,1,343.2,88.95l-3.673-27.219a9.924,9.924,0,0,0,3.334-1.165" transform="translate(-248.698 0.374)" fill="none" stroke="#eebdfd" stroke-miterlimit="10"/>
      <polyline points="54.929 14.025 54.999 14.383 57.099 25.042" fill="none" stroke="#eebdfd" stroke-miterlimit="10"/>
      <polyline points="119.042 160.602 119.042 146.719 49.724 146.719" fill="none" stroke="#eebdfd" stroke-miterlimit="10"/>
      <polyline points="114.762 701.758 160.075 701.758 160.075 704.654" fill="none" stroke="#eebdfd" stroke-miterlimit="10"/>
      <path d="M445.358,746.537c3.563,11.515,1.045,21,8.907,22.692s24.294-3.722,24.294-3.722l2.378,5.424s12.023-5.733,15.924-18c.975-3.105,1.712-5.414,2.269-7.146.329-1.055.6-1.891.806-2.558,0-.01.01-.02.01-.03l.806-2.537" transform="translate(-248.698 0.374)" fill="none" stroke="#eebdfd" stroke-miterlimit="10"/>
    </g>
  </g>
</svg>
