<svg xmlns="http://www.w3.org/2000/svg" viewBox="0 0 840.744 267.672">
  <g>
    <g>
      <path d="M194.076,381.291a56.176,56.176,0,0,1-37.231,0,45.226,45.226,0,0,1-15.188-9.176,38.976,38.976,0,0,1-10.191-14.023,43.24,43.24,0,0,1-3.841-18.034A45.938,45.938,0,0,1,141.319,306.5a45.1,45.1,0,0,1,15.2-9.186,54.261,54.261,0,0,1,19.029-3.334,53.366,53.366,0,0,1,18.869,3.334c.826.309,1.643.637,2.449.976-6.768,6.279-24.344,10.867-34.455,15.744l-.04-.08c-11.515,3.563-21,1.045-22.691,8.908s3.722,24.293,3.722,24.293l-5.424,2.379s5.733,12.022,18,15.924c3.1.975,5.414,1.711,7.145,2.269,10.759,7.4,24.951,9.653,38.128,10.27A51.3,51.3,0,0,1,194.076,381.291Z" transform="translate(-68.536 -117.294)" fill="#eebdfd"/>
      <path d="M271.206,382.127H237.478V362.8c5.723,2.389,11.8,7.773,15.137,6.857.229.379.478.757.727,1.125a4.114,4.114,0,0,0,3.344,2.17c2.806,0,5.892-3.772,7.992-8.43,2.289-1.105,4.558-2.229,6.528-3.244v20.85Z" transform="translate(-68.536 -117.294)" fill="#eebdfd"/>
      <path d="M292.415,319.527h-4.847a14.439,14.439,0,0,0-7.036-6.589c-10.49-4.279-11-9.972-10.341-14.719h.01l22.214-.239Z" transform="translate(-68.536 -117.294)" fill="#eebdfd"/>
      <path d="M676.215,238.674a52.342,52.342,0,0,1-18.691-3.174,45.021,45.021,0,0,1-15.2-9.186,38.9,38.9,0,0,1-10.181-14.023,43.006,43.006,0,0,1-3.842-18.024,45.885,45.885,0,0,1,13.685-33.559,45.2,45.2,0,0,1,15.2-9.186,54.3,54.3,0,0,1,19.029-3.334,53.366,53.366,0,0,1,18.869,3.334,43.6,43.6,0,0,1,15.2,9.186,41.088,41.088,0,0,1,10.012,14.69,43.338,43.338,0,0,1,3.513,14.55,19.145,19.145,0,0,1-4.02-1.194c-1.344-1.055-3.115-1.951-4.648-3.026a.01.01,0,0,1-.01-.01,17.367,17.367,0,0,1-3.344-4.309c-4.18-15.2-14.859-26.214-28.384-26.214a25.226,25.226,0,0,0-7.683,1.174,12.559,12.559,0,0,0-3.006,1.164,29.875,29.875,0,0,0-5.344-.5c-15.356,0-27.21,10.519-27.21,22.7a20.7,20.7,0,0,0,4.509,12.689c7.006,9.017,2,23.04,6.011,27.05a32.937,32.937,0,0,0,14.879,9.634C668.939,233.23,672.811,236.853,676.215,238.674Z" transform="translate(-68.536 -117.294)" fill="#eebdfd"/>
      <path d="M563.535,237.5c-1.841.169-3.175.169-4.349.169a27.079,27.079,0,0,1-21.03-9.176c-3.174-3.672-5.175-7.514-5.682-11.525a112.177,112.177,0,0,1-.667-13.356V192.675a63.469,63.469,0,0,1,9.176,1.095,30.909,30.909,0,0,1,4.538,1.2c1.672,15.715,5.155,29.847,21.845,29.847a34.462,34.462,0,0,0,6.848-.677c2.508-.667,4.339-4.837,4.339-9.007a12.892,12.892,0,0,0-.5-3.682,18.647,18.647,0,0,0,4.339-.975v24.353a59.455,59.455,0,0,1-6.339,1.333c-2.17.339-4.339.667-6.519.836Z" transform="translate(-68.536 -117.294)" fill="#eebdfd"/>
      <path d="M863.706,238.177a76.773,76.773,0,0,1-14.033-1.344,40.829,40.829,0,0,1-12.689-4.339,33.96,33.96,0,0,1-10.181-8.181,34.717,34.717,0,0,1-6.848-12.52l27.22-3.672a9.931,9.931,0,0,0,1.164,3.334c3.583,7.972,10.689,10.39,17.934,10.131s13.207,1.185,17.964-7.623c2.449-4.538-8.847-15.506-6.489-22.035,1.633-4.518,9.515-4.1,13.914-9.305a25.631,25.631,0,0,1,4.767,2.627c8.181,5.176,12.351,12.52,12.351,22.035a25.407,25.407,0,0,1-4.34,15.028,31.333,31.333,0,0,1-10.857,9.514,48.037,48.037,0,0,1-14.521,4.847A83.034,83.034,0,0,1,863.706,238.177Z" transform="translate(-68.536 -117.294)" fill="#eebdfd"/>
      <path d="M151.022,199.024c4.708,1.633,5.882,8.987,10.122,13.327,4.548,5.6,8.569,9.922,21.188,9.922,11.187,0,17.088-3.971,23.1-15.824l11.017.667a42.416,42.416,0,0,1-6.34,13.863,39.464,39.464,0,0,1-10.191,9.515,51.6,51.6,0,0,1-13.187,5.672,63.507,63.507,0,0,1-15.028,1.842,67.945,67.945,0,0,1-18.531-2.508,41.023,41.023,0,0,1-25.408-19.945c18.81-.9,7.176-18.093,21.815-16.839A5.553,5.553,0,0,1,151.022,199.024Z" transform="translate(-68.536 -117.294)" fill="#eebdfd"/>
      <path d="M93.578,236.336H69.036V149.183H97.748v17.865h.338a40.522,40.522,0,0,1,2.837-8.35,21.671,21.671,0,0,1,4.508-6.34,18.089,18.089,0,0,1,6.509-3.841,24.08,24.08,0,0,1,8.847-1.006l4.509.339v14.192c-13.973-2.19-27.389,14.441-27.389,30.732h-.279L97.579,176.9c-5.176,0-10.351-3.5-16.86-4.17-2,0-3.5,3.334-3.5,6.837a8.949,8.949,0,0,0,1.5,5.175c3.5,5.852,4.508,12.361,4.837,18.869a5.528,5.528,0,0,0-.836,1.165,12.591,12.591,0,0,0-1.662,6.519c0,2.5.667,5.006,2.667,6.508C89.4,223.477,89.736,230.663,93.578,236.336Z" transform="translate(-68.536 -117.294)" fill="#eebdfd"/>
      <path d="M624.294,236.336H590.575V204.011a30.483,30.483,0,0,0,4.11-9.823c1.434-5.753.329-14.362-4.11-23.219V149.353h33.719v8.519c-4.668,2.329-11.187,1.662-13.356,4a7.025,7.025,0,0,0-1.662,5.006c0,5.344,4,11.694,4,17.366a7.975,7.975,0,0,1-1.333,4.678c-2.508,5.006-7.683,9.345-7.683,14.023a6.481,6.481,0,0,0,.676,3,9.583,9.583,0,0,1,1,4.678c0,2.5-.667,5.175-.667,7.673a9.685,9.685,0,0,0,1.672,5.683,2.058,2.058,0,0,0,1.5.5c1.333,0,2.836-.5,3.5-.5,4.846-9.355,7.852-19.039,12.351-28.215Z" transform="translate(-68.536 -117.294)" fill="#eebdfd"/>
      <path d="M815.785,236.336H793.253a22.113,22.113,0,0,1-.169-3.344c0-10.51,4.509-21.866,6.34-32.216,1.174-6.678,2.508-14.361,2.508-21.039,0-5.344-.836-9.853-3.5-13.018-4.011-5.175-9.853-7.185-16.362-7.185a35.622,35.622,0,0,0-4.21.259,54.839,54.839,0,0,0-14.032,3.881l-.8-2.13a19.747,19.747,0,0,1,9.853-10.858,36.51,36.51,0,0,1,14.859-3.175,40.65,40.65,0,0,1,12.351,2.011,20.58,20.58,0,0,1,10.36,7.006,25.475,25.475,0,0,1,4.668,12.361,125.557,125.557,0,0,1,.666,13.684Z" transform="translate(-68.536 -117.294)" fill="#eebdfd"/>
      <path d="M484.543,223.487c12.69-.169,14.541-8.847,17.686-16.2a25.432,25.432,0,0,1,2.557-4.777l11.834.935c-1.672,11.356-6.181,19.875-13.525,25.717s-16.521,8.678-27.708,8.678a56.56,56.56,0,0,1-17.366-2.508c-5.176-1.662-10.022-4.836-14.69-9.345a42.049,42.049,0,0,1-9.683-15.2,49.73,49.73,0,0,1-3.175-17.864,48.985,48.985,0,0,1,3.175-18.193,42.3,42.3,0,0,1,9.176-14.53,39.109,39.109,0,0,1,14.032-9.346,46.719,46.719,0,0,1,18.362-3.5,48.835,48.835,0,0,1,15.028,2.339,40.888,40.888,0,0,1,12.52,6.678,37.807,37.807,0,0,1,9.017,10.848,41.247,41.247,0,0,1,4.508,14.52l-8.171.8c-4.886-1.832-7.354-5.534-9.026-8.848a18.584,18.584,0,0,0-1.5-3.135,11.934,11.934,0,0,0-2.906-3.672c-.01-.02-.03-.03-.04-.04a17.376,17.376,0,0,0-12.749-5.295,23.288,23.288,0,0,0-5.5.7l-.13.03C462.071,165.4,447.71,180.6,449.292,194.9s10.49,26.812,32.345,28.484C482.663,223.467,483.628,223.5,484.543,223.487Z" transform="translate(-68.536 -117.294)" fill="#eebdfd"/>
      <path d="M325.964,230.722a33.683,33.683,0,0,1-11.973,1.921c-5.016-.189-16.909-.169-21.746-1.443V190.864c2.3,7.772-.557,17.277,3.832,22.462,5.583,6.608,17.018,10.042,26.165,6.867a14.073,14.073,0,0,0,3.722-1.961Z" transform="translate(-68.536 -117.294)" fill="#eebdfd"/>
      <path d="M264.528,173.726V231.25c-2.508-1.045-5.195-2.319-7.892-3.444,2.458-5.165,3.882-14.241,3.882-19.516a8.775,8.775,0,0,0-.827-4.339c-3.513-9.017-8.051-20.87-7.185-28.056.388-3.2,5.832-7.961,5.155-11.863-1.921-11.027-6.986-18.183,3.026-26.2,4.339-3.832,10.519-5.673,16.7-5.673a37.351,37.351,0,0,1,12.022,2.17v5.026c-4.339-.209-13.117-.259-17.367.656-3,.647-8.011,3.006-8.011,9.346a17.94,17.94,0,0,0,.159,2.836c-.05,11.037,1.692,17.536,4.329,21.537Z" transform="translate(-68.536 -117.294)" fill="#eebdfd"/>
      <path d="M230.8,225.05V173.726H218.618V152.189H230.8v-1.164a72.776,72.776,0,0,1,1-12.361,22.812,22.812,0,0,1,5.345-11.346,22.308,22.308,0,0,1,12.35-7.852,63.623,63.623,0,0,1,14.859-1.672,103.291,103.291,0,0,1,12.52.677l12.53,1.492v11.615l-38.117.657c-5.822,3.612-9.634,8.977-9.634,16.948a33.5,33.5,0,0,0,1,7.684c1.175,4.339-3.035,16.53-3.035,21.039,0,11.853,12.878,7.553,12.878,18.571,0,6.051-9.156,20.312-9.534,28.344A115.627,115.627,0,0,0,230.8,225.05Z" transform="translate(-68.536 -117.294)" fill="#eebdfd"/>
      <path d="M341.9,221.865a39.247,39.247,0,0,1-6.08-10.072,45.216,45.216,0,0,1-1.862-5.464,64.735,64.735,0,0,0,3.285-18.66c.2-4.518-.707-7.624-2.319-9.853.179-.527.358-1.055.557-1.582a45.431,45.431,0,0,1,9.515-15.2,39.971,39.971,0,0,1,15.863-10.182,56.732,56.732,0,0,1,18.7-3.344,50.967,50.967,0,0,1,19.536,3.514,41.452,41.452,0,0,1,14.69,9.514,40.79,40.79,0,0,1,9.176,14.859,55.524,55.524,0,0,1,3.344,19.536v4.508H421.3c-.657-7.8-3.085-12.111-6.937-17.784-2.289-3.374-13.605-15.108-17.277-16.949a32.812,32.812,0,0,0-3.225-1.841l-.059-.03a33.586,33.586,0,0,0-15.5-3.374c-7.007,0-17.536,4.13-21.328,8.43-3.065,3.463-4.488,10.36-4.926,17.834-.448,7.743,2.776,22.512-2.279,28.573A52.65,52.65,0,0,1,341.9,221.865Z" transform="translate(-68.536 -117.294)" fill="#eebdfd"/>
      <path d="M846.618,203.2a38.685,38.685,0,0,1-9.465-3.762,23.775,23.775,0,0,1-9.345-8.35c-2.508-3.5-3.673-8.011-3.673-13.853a23.4,23.4,0,0,1,3.673-13.2,31.545,31.545,0,0,1,9.683-9.683,42.094,42.094,0,0,1,13.526-5.176,70.708,70.708,0,0,1,14.52-1.5,61.217,61.217,0,0,1,12.192,1.333,48.163,48.163,0,0,1,11.345,3.842,36.354,36.354,0,0,1,9.524,7.016,33.038,33.038,0,0,1,6.171,10.52l-9.515,1.831-.358.07a14.588,14.588,0,0,0-2.149-7.076,24.6,24.6,0,0,0-6.838-7.017,38.315,38.315,0,0,0-21.039-6.18,29.646,29.646,0,0,0-15.028,3.841c-7.006,4.011-8.011,11.018-16.023,15.028a9.876,9.876,0,0,0-4.678,8.679c0,4.677,12.262,11.186,17.268,12.36C846.409,191.928,846.239,197.751,846.618,203.2Z" transform="translate(-68.536 -117.294)" fill="#eebdfd"/>
      <path d="M216.449,199.442h-24.98c6.469-10.619,7.215-16.281,6.389-22.372-1.025-7.7-3.911-16.232-28.334-18.2-5.932-.478-9.654.179-12.271,1.264a.76.76,0,0,1-.11.04,11.071,11.071,0,0,0-4.409,2.806l-.01.01c-2.04,1.682-3.682,3.195-7.2,3.085a42.71,42.71,0,0,1-12.988-2.04c.826-1.045,1.692-2.04,2.608-3A39.968,39.968,0,0,1,151,150.855a56.727,56.727,0,0,1,18.7-3.344,50.967,50.967,0,0,1,19.536,3.514,41.364,41.364,0,0,1,14.69,9.514,40.81,40.81,0,0,1,9.186,14.859,55.753,55.753,0,0,1,3.334,19.536Z" transform="translate(-68.536 -117.294)" fill="#eebdfd"/>
      <path d="M730.813,190.187v-41H762.7v12.361h.328l.8,2.13a74.228,74.228,0,0,0-14.481,8.051A9.673,9.673,0,0,0,746,179.409a17.382,17.382,0,0,0,1.065,5.692A45.311,45.311,0,0,1,730.813,190.187Z" transform="translate(-68.536 -117.294)" fill="#eebdfd"/>
      <path d="M325.964,119.466v52.886c-3.921-1.254-8.221-2.159-11.724-4.249-6.7-4.011-1.274-10.49-9.186-22.692-2.508-3.871-8.7-5.3-12.809-5.812V119.466Z" transform="translate(-68.536 -117.294)" fill="#eebdfd"/>
      <path d="M530.543,170.72H519.118V148.686H533.31l.268-3.006,2.6.229c-.02.2-.03.408-.03.607a27.139,27.139,0,0,0,1.174,7.345l-.169.169a4.492,4.492,0,0,1-2,.5c-1.334,0-2.677-.5-4.011-.5-2,1-4.011,3.006-4.011,4v.836a2.664,2.664,0,0,0,.677,2.01c0,.667-.169,1.334-.169,1.832a1.905,1.905,0,0,0,.5,1.333,13.036,13.036,0,0,0,4.339,2.578C531.817,168.053,531.19,169.436,530.543,170.72Z" transform="translate(-68.536 -117.294)" fill="#eebdfd"/>
      <path d="M582.394,148.686v10.5a37.05,37.05,0,0,0-17.366-10.459l.01-.04Z" transform="translate(-68.536 -117.294)" fill="#eebdfd"/>
      <path d="M565.038,148.686l-.01.04a32.271,32.271,0,0,0-7.723-1.016,4.514,4.514,0,0,0,.657-2.975c0-1.5-3.354-2.906-4.36-4.081.17-2.338,4.25-10.33,4.588-12.669,0-1.672-3.344-3.344-6.18-3.344a5.884,5.884,0,0,0-1.831.338c-1.344,1-1.762,7.057-2.926,8.39-5.185-.477-10.6,6.051-11.077,12.54l-2.6-.229,2.24-24.881,29.22-1Z" transform="translate(-68.536 -117.294)" fill="#eebdfd"/>
      <rect x="522.04" y="0.5" width="33.718" height="23.209" fill="#eebdfd"/>
    </g>
    <g>
      <rect x="522.04" y="0.5" width="33.718" height="23.209" fill="none" stroke="#eebdfd" stroke-miterlimit="10"/>
      <path d="M590.575,170.969V149.353h33.719v8.519c-4.668,2.329-11.187,1.662-13.356,4a7.025,7.025,0,0,0-1.662,5.006c0,5.344,4,11.694,4,17.366a7.975,7.975,0,0,1-1.333,4.678c-2.508,5.006-7.683,9.345-7.683,14.023a6.481,6.481,0,0,0,.676,3,9.583,9.583,0,0,1,1,4.678c0,2.5-.667,5.175-.667,7.673a9.685,9.685,0,0,0,1.672,5.683,2.058,2.058,0,0,0,1.5.5c1.333,0,2.836-.5,3.5-.5,4.846-9.355,7.852-19.039,12.351-28.215v40.566H590.575V170.969Z" transform="translate(-68.536 -117.294)" fill="none" stroke="#eebdfd" stroke-miterlimit="10"/>
      <polygon points="223.71 22.305 223.71 2.172 257.428 2.172 257.428 55.058 257.428 100.938 257.428 113.429 257.428 119.042 223.71 119.042 223.71 113.906 223.71 73.57 223.71 22.305" fill="none" stroke="#eebdfd" stroke-miterlimit="10"/>
      <path d="M152.724,162.987c-2.04,1.682-3.682,3.195-7.2,3.085a42.71,42.71,0,0,1-12.988-2.04,42.386,42.386,0,0,0-7.235-1.99c-13.973-2.19-27.389,14.441-27.389,30.732,0,.2.01.408.01.608.189,9.9,7.235,22.213,28.265,22.213.547,0,1.074-.01,1.582-.04,18.81-.9,7.176-18.093,21.815-16.839a5.553,5.553,0,0,1,1.443.308c4.708,1.633,5.882,8.987,10.122,13.327a10.641,10.641,0,0,0,8.38,3.244c5.842-.159,13.127-2.588,19.825-12.809q1.149-1.746,2.12-3.344c6.469-10.619,7.215-16.281,6.389-22.372-1.025-7.7-3.911-16.232-28.334-18.2-5.932-.478-9.654.179-12.271,1.264" transform="translate(-68.536 -117.294)" fill="none" stroke="#eebdfd" stroke-miterlimit="10"/>
      <path d="M157.143,160.171a17.558,17.558,0,0,0-4.409,2.806" transform="translate(-68.536 -117.294)" fill="none" stroke="#eebdfd" stroke-miterlimit="10"/>
      <path d="M161.074,212.261c.02.03.05.06.07.09,4.548,5.6,8.569,9.922,21.188,9.922,11.187,0,17.088-3.971,23.1-15.824l11.017.667a42.416,42.416,0,0,1-6.34,13.863,39.464,39.464,0,0,1-10.191,9.515,51.6,51.6,0,0,1-13.187,5.672,63.507,63.507,0,0,1-15.028,1.842,67.945,67.945,0,0,1-18.531-2.508,41.023,41.023,0,0,1-25.408-19.945,36.087,36.087,0,0,1-1.8-3.762,43.5,43.5,0,0,1-3.344-17.864,46.326,46.326,0,0,1,9.912-29.9c.826-1.045,1.692-2.04,2.608-3A39.968,39.968,0,0,1,151,150.855a56.727,56.727,0,0,1,18.7-3.344,50.967,50.967,0,0,1,19.536,3.514,41.364,41.364,0,0,1,14.69,9.514,40.81,40.81,0,0,1,9.186,14.859,55.753,55.753,0,0,1,3.334,19.536v4.508h-58.43c0,2.17-.717,7.176,3.055,12.819" transform="translate(-68.536 -117.294)" fill="none" stroke="#eebdfd" stroke-miterlimit="10"/>
      <path d="M151,199.273a1.105,1.105,0,0,1,.019-.249,6.835,6.835,0,0,1,2.15-4.259c4.509-4.509,10.351-5.175,16.362-5.175,2.508,0,5.175.169,7.683.169,4.837,0,9.345-.508,13.017-3.006,2.339-1.841,3.344-5.175,3.344-8.519,0-5.673-2.677-11.684-6.349-13.525a39.824,39.824,0,0,0-20.7-5.842,28.093,28.093,0,0,0-9.275,1.264.76.76,0,0,1-.11.04,11.071,11.071,0,0,0-4.409,2.806l-.01.01c-4.12,4.429-7.524,14.61-7.524,26.284l24.334.319" transform="translate(-68.536 -117.294)" fill="none" stroke="#eebdfd" stroke-miterlimit="10"/>
      <path d="M97.579,176.9c-5.176,0-10.351-3.5-16.86-4.17-2,0-3.5,3.334-3.5,6.837a8.949,8.949,0,0,0,1.5,5.175c3.5,5.852,4.508,12.361,4.837,18.869a5.528,5.528,0,0,0-.836,1.165,12.591,12.591,0,0,0-1.662,6.519c0,2.5.667,5.006,2.667,6.508,5.673,5.673,6.011,12.859,9.853,18.532H69.036V149.183H97.748v17.865h.338a40.522,40.522,0,0,1,2.837-8.35,21.671,21.671,0,0,1,4.508-6.34,18.089,18.089,0,0,1,6.509-3.841,24.08,24.08,0,0,1,8.847-1.006l4.509.339v14.192" transform="translate(-68.536 -117.294)" fill="none" stroke="#eebdfd" stroke-miterlimit="10"/>
      <polyline points="29.043 59.607 29.093 75.481 29.212 119.042 25.042 119.042" fill="none" stroke="#eebdfd" stroke-miterlimit="10"/>
      <line x1="220.873" y1="17.031" x2="220.873" y2="22.057" fill="none" stroke="#eebdfd" stroke-miterlimit="10"/>
      <path d="M264.19,152.189c-.05,11.037,1.692,17.536,4.329,21.537,5.593,8.459,15.217,5.752,20.442,11.276a14.077,14.077,0,0,1,3.284,5.862c2.3,7.772-.557,17.277,3.832,22.462,5.583,6.608,17.018,10.042,26.165,6.867a14.073,14.073,0,0,0,3.722-1.961c3.433-2.5,6.11-6.608,7.991-11.9a64.735,64.735,0,0,0,3.285-18.66c.2-4.518-.707-7.624-2.319-9.853-2.09-2.9-5.374-4.319-8.957-5.464-3.921-1.254-8.221-2.159-11.724-4.249-6.7-4.011-1.274-10.49-9.186-22.692-2.508-3.871-8.7-5.3-12.809-5.812-1.154-.139-2.139-.209-2.836-.248-4.339-.209-13.117-.259-17.367.656-3,.647-8.011,3.006-8.011,9.346a17.94,17.94,0,0,0,.159,2.836h21.547v21.537H264.528v62.61H230.8v-62.61H218.618V152.189H230.8v-1.164a72.776,72.776,0,0,1,1-12.361,22.812,22.812,0,0,1,5.345-11.346,22.308,22.308,0,0,1,12.35-7.852,63.623,63.623,0,0,1,14.859-1.672,103.291,103.291,0,0,1,12.52.677l12.53,1.492v11.615" transform="translate(-68.536 -117.294)" fill="none" stroke="#eebdfd" stroke-miterlimit="10"/>
      <path d="M393.8,162.838a33.586,33.586,0,0,0-15.5-3.374c-7.007,0-17.536,4.13-21.328,8.43-3.065,3.463-4.488,10.36-4.926,17.834-.448,7.743,2.776,22.512-2.279,28.573a52.65,52.65,0,0,1-7.873,7.564,54.935,54.935,0,0,1-15.933,8.857,33.683,33.683,0,0,1-11.973,1.921c-5.016-.189-16.909-.169-21.746-1.443s-2.647-3.821-8.877-4.737c-4.23-.627-7.325,7.424-12.162,6.857a26.739,26.739,0,0,1-6.678-2.07c-2.508-1.045-5.195-2.319-7.892-3.444-3.463-1.453-6.917-2.667-9.972-2.826-1.274-.07-2.508-.119-3.7-.159a115.627,115.627,0,0,0-12.162.229c-10.838.826-18.034,3.383-23.278,7.006" transform="translate(-68.536 -117.294)" fill="none" stroke="#eebdfd" stroke-miterlimit="10"/>
      <path d="M204.625,277.369c.518,5.961-.9,12.44-6.488,19.556a11.636,11.636,0,0,1-1.274,1.364c-6.768,6.279-24.344,10.867-34.455,15.744a23.955,23.955,0,0,0-5.673,3.543c-13.087,12.092-11.535,24-6.728,34.525a37.642,37.642,0,0,0,13.117,15.625c10.759,7.4,24.951,9.653,38.128,10.27,6.827.329,13.385.209,19.058.16,0,0,4.121-14.133,10.59-16.173,2-.627,4.259-.149,6.578.816,5.723,2.389,11.8,7.773,15.137,6.857a99.088,99.088,0,0,0,12.063-5.135c2.289-1.105,4.558-2.229,6.528-3.244,1.493-.747,2.807-1.443,3.842-1.991,7.046-3.772,10.072-7.852,14.361-20.312a25.713,25.713,0,0,0-1.841-19.447,14.439,14.439,0,0,0-7.036-6.589c-10.49-4.279-11-9.972-10.341-14.719.149-1.085.348-2.12.518-3.075.517-3.036.5-7.992,8.011-9.346,2.14-.388,13.525-2.318,17.367-1.652,36.366,1.792,18.76,19.795,36.366,25.488,17.277,5.593,39.978,2.011,54.21-2.289,6.6-1.99,18.919-7.2,23.378-13.366,3.961-5.5-7.116-23.8-7.116-23.8s12.41-17.287,15.376-36.1c.8-5.075,1.443-9.544,1.931-13.505.687-5.454,1.075-9.952,1.2-13.764a62.138,62.138,0,0,0-.139-7.375c-.657-7.8-3.085-12.111-6.937-17.784-2.289-3.374-13.605-15.108-17.277-16.949a32.812,32.812,0,0,0-3.225-1.841" transform="translate(-68.536 -117.294)" fill="none" stroke="#eebdfd" stroke-miterlimit="10"/>
      <path d="M296.087,284.146V265.764l-12.53-1.5a103.28,103.28,0,0,0-12.52-.667,63.668,63.668,0,0,0-14.859,1.662,22.314,22.314,0,0,0-12.35,7.852,22.8,22.8,0,0,0-5.345,11.356,72.656,72.656,0,0,0-1,12.351v1.164H225.3v21.547h12.182v62.6h33.728v-62.6h21.209V297.98l-22.214.239" transform="translate(-68.536 -117.294)" fill="none" stroke="#eebdfd" stroke-miterlimit="10"/>
      <path d="M165.712,368.542c10.768,4.259,22.562-1.354,30.583-9.316,11.854-11.783,8.291-31.787-.726-40.087s-26.2-10.918-38.834-1.563" transform="translate(-68.536 -117.294)" fill="none" stroke="#eebdfd" stroke-miterlimit="10"/>
      <path d="M155.979,361.316a25.078,25.078,0,0,0,9.7,7.216" transform="translate(-68.536 -117.294)" fill="none" stroke="#eebdfd" stroke-miterlimit="10"/>
      <path d="M201.252,378a51.3,51.3,0,0,1-7.176,3.3,56.176,56.176,0,0,1-37.231,0,45.226,45.226,0,0,1-15.188-9.176,38.976,38.976,0,0,1-10.191-14.023,43.24,43.24,0,0,1-3.841-18.034A45.938,45.938,0,0,1,141.319,306.5a45.1,45.1,0,0,1,15.2-9.186,54.261,54.261,0,0,1,19.029-3.334,53.366,53.366,0,0,1,18.869,3.334c.826.309,1.643.637,2.449.976A41.861,41.861,0,0,1,209.6,306.5a41.2,41.2,0,0,1,10.022,14.69,45.969,45.969,0,0,1,3.672,18.869,43.145,43.145,0,0,1-3.672,18.034,41.176,41.176,0,0,1-10.182,14.023A42.365,42.365,0,0,1,201.252,378Z" transform="translate(-68.536 -117.294)" fill="none" stroke="#eebdfd" stroke-miterlimit="10"/>
      <path d="M421.3,199.442H367.873c.487,8.639,3.961,22.025,20.193,23.04,7.882.488,21.208-4.18,27.22-16.033l6.15.368,4.867.3a42.543,42.543,0,0,1-6.071,13.465,4.644,4.644,0,0,1-.269.4,39.464,39.464,0,0,1-10.191,9.515,51.6,51.6,0,0,1-13.187,5.672,63.571,63.571,0,0,1-15.028,1.842,67.945,67.945,0,0,1-18.531-2.508,42.062,42.062,0,0,1-16.531-8.848,43.5,43.5,0,0,1-4.6-4.787,39.247,39.247,0,0,1-6.08-10.072,45.216,45.216,0,0,1-1.862-5.464,42.825,42.825,0,0,1-1.482-12.4,46.178,46.178,0,0,1,2.448-16.113c.179-.527.358-1.055.557-1.582a45.431,45.431,0,0,1,9.515-15.2,39.971,39.971,0,0,1,15.863-10.182,56.732,56.732,0,0,1,18.7-3.344,50.967,50.967,0,0,1,19.536,3.514,41.452,41.452,0,0,1,14.69,9.514,40.79,40.79,0,0,1,9.176,14.859,55.524,55.524,0,0,1,3.344,19.536v4.508Z" transform="translate(-68.536 -117.294)" fill="none" stroke="#eebdfd" stroke-miterlimit="10"/>
      <path d="M352.049,185.728c2.5,0,24.861-.2,35.022-.547,3.334-.11,11.734.288,15.406-2.22,2.339-1.831,3.075-2.557,3.075-5.891,0-5.663-4.528-9.813-11.694-14.2l-.059-.03" transform="translate(-68.536 -117.294)" fill="none" stroke="#eebdfd" stroke-miterlimit="10"/>
      <path d="M476.263,162.271c-7.932,2-15.754,7.812-20.75,14.291a7.325,7.325,0,0,0-1.662,4.678c0,4.01,3.164,8.181,6.678,10.35a8.044,8.044,0,0,0,5.006,2.508c0,1.5,0,3.334.169,5.175a23.7,23.7,0,0,0,1.164,7.007,15.544,15.544,0,0,0,3.5,5.513,7.534,7.534,0,0,0,1.842,1.334c1.5,3.344,3.334,6.349,6.339,8.519a10.441,10.441,0,0,0,5.991,1.841h.409" transform="translate(-68.536 -117.294)" fill="none" stroke="#eebdfd" stroke-miterlimit="10"/>
      <path d="M494.645,166.839a17.376,17.376,0,0,0-12.749-5.295,23.288,23.288,0,0,0-5.5.7" transform="translate(-68.536 -117.294)" fill="none" stroke="#eebdfd" stroke-miterlimit="10"/>
      <path d="M502.229,207.305v-.02c0-.856-.3-4.18-.3-5.006l2.856.229,11.834.935c-1.672,11.356-6.181,19.875-13.525,25.717s-16.521,8.678-27.708,8.678a56.56,56.56,0,0,1-17.366-2.508c-5.176-1.662-10.022-4.836-14.69-9.345a42.049,42.049,0,0,1-9.683-15.2,49.73,49.73,0,0,1-3.175-17.864,48.985,48.985,0,0,1,3.175-18.193,42.3,42.3,0,0,1,9.176-14.53,39.109,39.109,0,0,1,14.032-9.346,46.719,46.719,0,0,1,18.362-3.5,48.835,48.835,0,0,1,15.028,2.339,40.888,40.888,0,0,1,12.52,6.678,37.807,37.807,0,0,1,9.017,10.848,41.247,41.247,0,0,1,4.508,14.52l-8.171.8-5.692.547c-1.453-3.036-2.2-6.419-3.334-9.395a18.584,18.584,0,0,0-1.5-3.135,23.2,23.2,0,0,0-2.906-3.672" transform="translate(-68.536 -117.294)" fill="none" stroke="#eebdfd" stroke-miterlimit="10"/>
      <path d="M558.589,203.344a13.351,13.351,0,0,1-3.245-2.707c-6.967-8.251,3.175-21.02,3.175-21.02,0-2-2.667-7.225-.329-9.564,1.165-1.164,3.006-1.333,5.006-1.333.8,0,1.633.03,2.449.03,2.617,0,5.165-.289,6.568-2.7a6.636,6.636,0,0,0,1.334-3.683,8.57,8.57,0,0,0-2-5.175c0-.826.17-1.662-.338-2.17a9.715,9.715,0,0,0-4.837-1.333,7.529,7.529,0,0,0-3.344.667c-2.169-1.334-4.17-2.837-6.339-4.34a6.937,6.937,0,0,1,.617-2.309,4.514,4.514,0,0,0,.657-2.975c0-1.5-3.354-2.906-4.36-4.081.17-2.338,4.25-10.33,4.588-12.669,0-1.672-3.344-3.344-6.18-3.344a5.884,5.884,0,0,0-1.831.338c-1.344,1-1.762,7.057-2.926,8.39-5.185-.477-10.6,6.051-11.077,12.54-.02.2-.03.408-.03.607a27.139,27.139,0,0,0,1.174,7.345l-.169.169a4.492,4.492,0,0,1-2,.5c-1.334,0-2.677-.5-4.011-.5-2,1-4.011,3.006-4.011,4v.836a2.664,2.664,0,0,0,.677,2.01c0,.667-.169,1.334-.169,1.832a1.905,1.905,0,0,0,.5,1.333,13.036,13.036,0,0,0,4.339,2.578c4.488,1.811,9.962,2.806,10.688,6.439,1.175,6.777,1.563,14.52,2.359,21.915,1.672,15.715,5.155,29.847,21.845,29.847a34.462,34.462,0,0,0,6.848-.677c2.508-.667,4.339-4.837,4.339-9.007a12.892,12.892,0,0,0-.5-3.682l4.339-1v24.373a59.455,59.455,0,0,1-6.339,1.333c-2.17.339-4.339.667-6.519.836l-6,.5c-1.841.169-3.175.169-4.349.169a27.079,27.079,0,0,1-21.03-9.176c-3.174-3.672-5.175-7.514-5.682-11.525a112.177,112.177,0,0,1-.667-13.356V170.72H519.118V148.686H533.31l.268-3.006,2.24-24.881,29.22-1v28.882h17.356V170.72H565.366v33.629s-1.045,4.966,5.951,6.758" transform="translate(-68.536 -117.294)" fill="none" stroke="#eebdfd" stroke-miterlimit="10"/>
      <path d="M497.591,170.551c.448.945.926,2.02,1.5,3.135,1.672,3.314,4.14,7.016,9.026,8.848a18.4,18.4,0,0,0,4.419,1.025c5.832.637,9.246-1.563,15.148-8.34a22.291,22.291,0,0,0,2.856-4.5c.647-1.284,1.274-2.667,1.931-4.1,3.433-7.514,7.524-16.342,18.282-18.342a33.18,33.18,0,0,1,6.549-.568,32.271,32.271,0,0,1,7.723,1.016,37.05,37.05,0,0,1,17.366,10.459,42.179,42.179,0,0,1,4.5,5.524,51.83,51.83,0,0,1,3.682,6.26c4.439,8.857,5.544,17.466,4.11,23.219a30.483,30.483,0,0,1-4.11,9.823,16.5,16.5,0,0,1-8.181,6.469,18.647,18.647,0,0,1-4.339.975,21.624,21.624,0,0,1-6.708-.339c-.01,0-.02-.009-.03-.009a16.735,16.735,0,0,1-4.757-1.762,49.764,49.764,0,0,1-7.971-6c-1.055-.916-2.13-1.831-3.245-2.707a32.835,32.835,0,0,0-9.823-5.663,30.909,30.909,0,0,0-4.538-1.2,63.469,63.469,0,0,0-9.176-1.095c-8.33-.319-15.426,1.572-23.348,6.34a12.08,12.08,0,0,0-3.673,3.493,25.432,25.432,0,0,0-2.557,4.777c-3.145,7.355-5,16.033-17.686,16.2-.915.01-1.88-.02-2.906-.1-21.855-1.672-30.752-14.172-32.345-28.484s12.779-29.508,26.971-32.633l.13-.03a21.55,21.55,0,0,1,18.252,4.6c.01.01.03.02.04.04A11.934,11.934,0,0,1,497.591,170.551Z" transform="translate(-68.536 -117.294)" fill="none" stroke="#eebdfd" stroke-miterlimit="10"/>
      <path d="M256.636,227.806c-1.124,2.359-2.458,3.9-3.971,3.9-1.174,0-7.892-1.632-8.9-3.135a6.018,6.018,0,0,1-.806-3.752c.378-8.032,9.534-22.293,9.534-28.344,0-11.018-12.878-6.718-12.878-18.571,0-4.509,4.21-16.7,3.035-21.039a33.5,33.5,0,0,1-1-7.684c0-7.971,3.812-13.336,9.634-16.948l38.117-.657v2.747a37.351,37.351,0,0,0-12.022-2.17c-6.181,0-12.361,1.841-16.7,5.673-10.012,8.021-4.947,15.177-3.026,26.2.677,3.9-4.767,8.659-5.155,11.863-.866,7.186,3.672,19.039,7.185,28.056a8.775,8.775,0,0,1,.827,4.339C260.518,213.565,259.094,222.641,256.636,227.806Z" transform="translate(-68.536 -117.294)" fill="none" stroke="#eebdfd" stroke-miterlimit="10"/>
      <path d="M264.678,364.521c-2.1,4.658-5.186,8.43-7.992,8.43a4.114,4.114,0,0,1-3.344-2.17c-.249-.368-.5-.746-.727-1.125-3.6-5.861-4.777-12.171-4.777-18.909,0-11.027,8.082-25.448,8.082-37.3,0-4.508-5.414-6.449-6.589-10.788a33.485,33.485,0,0,1-.995-7.674c0-13.077,10.251-19.158,22.87-21.974v7.972a19.783,19.783,0,0,0-3.841,2.647c-10.012,8.011-6.011,24.045-8.012,35.062a17.868,17.868,0,0,0-.169,3.005c0,8.51,3.672,19.029,7.185,28.046a8.775,8.775,0,0,1,.827,4.339A26.851,26.851,0,0,1,264.678,364.521Z" transform="translate(-68.536 -117.294)" fill="none" stroke="#eebdfd" stroke-miterlimit="10"/>
      <path d="M676.215,238.674a52.342,52.342,0,0,1-18.691-3.174,45.021,45.021,0,0,1-15.2-9.186,38.9,38.9,0,0,1-10.181-14.023,43.006,43.006,0,0,1-3.842-18.024,45.885,45.885,0,0,1,13.685-33.559,45.2,45.2,0,0,1,15.2-9.186,54.3,54.3,0,0,1,19.029-3.334,53.366,53.366,0,0,1,18.869,3.334,43.6,43.6,0,0,1,15.2,9.186,41.088,41.088,0,0,1,10.012,14.69,43.338,43.338,0,0,1,3.513,14.55c.11,1.4.16,2.846.16,4.319a42.912,42.912,0,0,1-3.673,18.024,40.864,40.864,0,0,1-10.181,14.023,45.783,45.783,0,0,1-15.366,9.186A52.735,52.735,0,0,1,676.215,238.674Z" transform="translate(-68.536 -117.294)" fill="none" stroke="#eebdfd" stroke-miterlimit="10"/>
      <path d="M715.128,185.718a7.13,7.13,0,0,1-3.344-4.309c-4.18-15.2-14.859-26.214-28.384-26.214a25.226,25.226,0,0,0-7.683,1.174,12.559,12.559,0,0,0-3.006,1.164,29.875,29.875,0,0,0-5.344-.5c-15.356,0-27.21,10.519-27.21,22.7a20.7,20.7,0,0,0,4.509,12.689c7.006,9.017,2,23.04,6.011,27.05a32.937,32.937,0,0,0,14.879,9.634,39.539,39.539,0,0,0,12.5,2.05,34.626,34.626,0,0,0,17.695-4.677c4.011-3.006,3.006-9.017,6.011-12.023,7.176-5.334,20.7-9.842,20.7-19.367a10.2,10.2,0,0,0-.667-3.672,5.027,5.027,0,0,0-2.01-2.667c-1.344-1.055-3.115-1.951-4.648-3.026" transform="translate(-68.536 -117.294)" fill="none" stroke="#eebdfd" stroke-miterlimit="10"/>
      <path d="M777.857,159.8c-9.663,1.842-13.286,4.22-15.3,7.216-1.9,2.806-2.389,6.131-5.086,10.062-1.682,2.438-5.543,5.473-10.41,8.021a45.311,45.311,0,0,1-16.252,5.086,26.051,26.051,0,0,1-7.007-.239,19.145,19.145,0,0,1-4.02-1.194,16.245,16.245,0,0,1-4.648-3.026.01.01,0,0,1-.01-.01,17.367,17.367,0,0,1-3.344-4.309c-3.3-12.022-18.113-18.044-28.822-18.044-1.98,0-10.559-.517-11.883-.517-12.152,0-22.343,10.3-22.343,19.944a16.355,16.355,0,0,0,3.573,10.042c5.544,7.136,3.493,16.073,4.757,21.408.976,4.14,4.369,9.872,8.49,14.868,3.383,4.12,7.255,7.743,10.659,9.564,14.55,7.753,30.882,2.1,36.544,2.1,0,0,26.593,30.325,48.787,22.532s38.336-10.061,31.707-26.97" transform="translate(-68.536 -117.294)" fill="none" stroke="#eebdfd" stroke-miterlimit="10"/>
      <path d="M730.813,190.187v-41H762.7v12.361h.328a19.747,19.747,0,0,1,9.853-10.858,36.51,36.51,0,0,1,14.859-3.175,40.65,40.65,0,0,1,12.351,2.011,20.58,20.58,0,0,1,10.36,7.006,25.475,25.475,0,0,1,4.668,12.361,125.557,125.557,0,0,1,.666,13.684v53.763H793.253a22.113,22.113,0,0,1-.169-3.344c0-10.51,4.509-21.866,6.34-32.216,1.174-6.678,2.508-14.361,2.508-21.039,0-5.344-.836-9.853-3.5-13.018-4.011-5.175-9.853-7.185-16.362-7.185a35.622,35.622,0,0,0-4.21.259,54.839,54.839,0,0,0-14.032,3.881,74.228,74.228,0,0,0-14.481,8.051A9.673,9.673,0,0,0,746,179.409a17.382,17.382,0,0,0,1.065,5.692,37.735,37.735,0,0,0,10.291,14.67,8.813,8.813,0,0,1,1.5,5.006,9.224,9.224,0,0,1-1.5,5.016c-2,3-10.022,5.006-10.022,8.011.836,4.837.666,12.023,1.343,18.532H730.813Z" transform="translate(-68.536 -117.294)" fill="none" stroke="#eebdfd" stroke-miterlimit="10"/>
      <path d="M884.237,213.963a17.844,17.844,0,0,1-5.672-1.5v-.328a3.049,3.049,0,0,0-1.842-2.678,16.941,16.941,0,0,0-4.339-1.672c-1.672-.328-3.344-.666-4.847-.826-1.662-.169-2.836-.338-3.672-.507-4.508-.667-9.017-1.5-13.854-2.5-1.154-.209-2.289-.448-3.393-.747a38.685,38.685,0,0,1-9.465-3.762,23.775,23.775,0,0,1-9.345-8.35c-2.508-3.5-3.673-8.011-3.673-13.853a23.4,23.4,0,0,1,3.673-13.2,31.545,31.545,0,0,1,9.683-9.683,42.094,42.094,0,0,1,13.526-5.176,70.708,70.708,0,0,1,14.52-1.5,61.217,61.217,0,0,1,12.192,1.333,48.163,48.163,0,0,1,11.345,3.842,36.354,36.354,0,0,1,9.524,7.016,33.038,33.038,0,0,1,6.171,10.52l-9.515,1.831" transform="translate(-68.536 -117.294)" fill="none" stroke="#eebdfd" stroke-miterlimit="10"/>
      <path d="M847.175,208.121a47.826,47.826,0,0,1-.557-4.917c-.379-5.453-.209-11.276-.209-11.276-5.006-1.174-17.268-7.683-17.268-12.36a9.876,9.876,0,0,1,4.678-8.679c8.012-4.01,9.017-11.017,16.023-15.028a29.646,29.646,0,0,1,15.028-3.841,38.315,38.315,0,0,1,21.039,6.18,24.6,24.6,0,0,1,6.838,7.017,14.588,14.588,0,0,1,2.149,7.076,16.152,16.152,0,0,1-1.682,7.942,10.888,10.888,0,0,1-1.552,2.388c-4.4,5.205-12.281,4.787-13.914,9.305-2.358,6.529,8.938,17.5,6.489,22.035-4.757,8.808-10.718,7.374-17.964,7.623s-14.351-2.159-17.934-10.131" transform="translate(-68.536 -117.294)" fill="none" stroke="#eebdfd" stroke-miterlimit="10"/>
      <path d="M884.237,174.393l-5.175,1a10.772,10.772,0,0,0-6.18-6.181,28.559,28.559,0,0,0-9.017-1.5,18.135,18.135,0,0,0-7.673,1.333c-2.17.836-3.175,2.011-3.175,3.175a3.366,3.366,0,0,0,1.5,3.006,13.993,13.993,0,0,0,3.672,1.5,35.34,35.34,0,0,0,7.176,1.175c2.836.328,5.344.667,7.514.826,3.841.507,8.011,1.174,12.191,2.01a28,28,0,0,1,6.589,1.881,25.631,25.631,0,0,1,4.767,2.627c8.181,5.176,12.351,12.52,12.351,22.035a25.407,25.407,0,0,1-4.34,15.028,31.333,31.333,0,0,1-10.857,9.514,48.037,48.037,0,0,1-14.521,4.847,83.034,83.034,0,0,1-15.356,1.5,76.773,76.773,0,0,1-14.033-1.344,40.829,40.829,0,0,1-12.689-4.339,33.96,33.96,0,0,1-10.181-8.181,34.717,34.717,0,0,1-6.848-12.52l27.22-3.672a9.931,9.931,0,0,0,1.164,3.334" transform="translate(-68.536 -117.294)" fill="none" stroke="#eebdfd" stroke-miterlimit="10"/>
      <polyline points="826.719 54.929 826.361 54.999 815.702 57.099" fill="none" stroke="#eebdfd" stroke-miterlimit="10"/>
      <polyline points="680.142 119.042 694.025 119.042 694.025 49.724" fill="none" stroke="#eebdfd" stroke-miterlimit="10"/>
      <polyline points="138.986 114.762 138.986 160.075 136.09 160.075" fill="none" stroke="#eebdfd" stroke-miterlimit="10"/>
      <path d="M162.368,313.953c-11.515,3.563-21,1.045-22.691,8.908s3.722,24.293,3.722,24.293l-5.424,2.379s5.733,12.022,18,15.924c3.1.975,5.414,1.711,7.145,2.269,1.055.328,1.891.6,2.558.806.01,0,.02.01.03.01l2.538.806" transform="translate(-68.536 -117.294)" fill="none" stroke="#eebdfd" stroke-miterlimit="10"/>
    </g>
  </g>
</svg>
